<svg xmlns="http://www.w3.org/2000/svg" xmlns:xlink="http://www.w3.org/1999/xlink" width="500" zoomAndPan="magnify" viewBox="0 0 375 374.999991" height="500" preserveAspectRatio="xMidYMid meet" version="1.0"><defs><g/><clipPath id="d5c0a3eeb3"><path d="M 22.765625 22.5625 L 352 22.5625 L 352 351.8125 L 22.765625 351.8125 Z M 22.765625 22.5625 " clip-rule="nonzero"/></clipPath></defs><g clip-path="url(#d5c0a3eeb3)"><path fill="#c065f0" d="M 158.0625 194.964844 C 156.132812 204.613281 151.222656 214.054688 143.792969 221.800781 C 134.636719 230.957031 123.597656 236.789062 114.441406 236.789062 L 90.707031 236.789062 L 90.8125 194.964844 L 143.796875 194.964844 C 142.101562 200.660156 138.988281 206.285156 134.839844 210.972656 C 128.382812 218.257812 120.472656 222.628906 113.605469 222.628906 L 98.828125 222.628906 L 98.828125 230.128906 L 113.605469 230.128906 C 125.050781 230.128906 139.632812 220.347656 147.121094 206.398438 C 149.183594 202.628906 150.667969 198.796875 151.597656 194.964844 Z M 144.441406 177.609375 C 143.726562 174.179688 142.539062 170.894531 140.875 167.675781 C 135.042969 156.644531 122.972656 148.320312 113.605469 148.320312 L 76.554688 148.527344 L 76.554688 177.617188 L 83.578125 177.617188 L 83.632812 154.570312 L 90.917969 154.570312 L 90.859375 177.617188 L 144.441406 177.617188 Z M 152.742188 160.601562 C 144.210938 144.160156 129.429688 134.167969 114.230469 134.167969 L 62.398438 133.957031 L 62.398438 177.609375 L 68.925781 177.609375 L 68.855469 141.242188 L 113.613281 141.03125 C 120.273438 141.03125 126.730469 143.113281 132.765625 147.066406 C 142.84375 153.898438 149.832031 165.496094 152.019531 177.609375 L 158.351562 177.609375 C 157.441406 171.835938 155.574219 166.121094 152.742188 160.601562 Z M 165.703125 194.964844 C 163.75 206.515625 158.148438 217.609375 149.414062 227 C 139.210938 237.828125 125.886719 244.277344 114.441406 244.277344 L 83.421875 244.277344 L 83.421875 240.535156 L 83.53125 194.964844 L 76.554688 194.964844 L 76.554688 244.699219 L 69.058594 244.699219 L 68.960938 194.964844 L 62.398438 194.964844 L 62.398438 250.734375 L 115.898438 250.734375 C 124.847656 250.734375 134.214844 247.617188 143.582031 241.160156 C 159.910156 230.390625 170.046875 213.75 172.535156 194.964844 Z M 319.125 194.964844 C 317.148438 210.933594 310.042969 225.894531 298.667969 237.625 C 286.386719 250.742188 270.148438 258.441406 255.160156 258.441406 L 194.164062 258.441406 L 194.164062 194.972656 L 179.859375 194.972656 C 177.886719 210.941406 170.777344 225.902344 159.402344 237.628906 C 147.121094 250.75 130.882812 258.449219 115.898438 258.449219 L 54.90625 258.449219 L 54.90625 194.980469 L 22.765625 194.980469 C 26.828125 282.261719 98.882812 351.789062 187.171875 351.789062 C 275.464844 351.789062 347.519531 282.261719 351.582031 194.980469 L 319.125 194.980469 Z M 304.964844 194.964844 C 303.011719 206.515625 297.410156 217.609375 288.675781 227 C 278.472656 237.828125 265.152344 244.277344 253.707031 244.277344 L 222.683594 244.277344 L 222.683594 240.535156 L 222.796875 194.964844 L 215.8125 194.964844 L 215.8125 244.699219 L 208.316406 244.699219 L 208.214844 194.964844 L 201.65625 194.964844 L 201.65625 250.734375 L 255.152344 250.734375 C 264.105469 250.734375 273.472656 247.617188 282.835938 241.160156 C 299.167969 230.390625 309.304688 213.75 311.792969 194.964844 Z M 255.160156 113.136719 C 270.773438 113.136719 286.800781 120.839844 299.292969 133.949219 C 310.726562 146.09375 317.550781 161.304688 319.261719 177.601562 L 351.488281 177.601562 C 346.527344 91.167969 274.859375 22.601562 187.171875 22.601562 C 99.488281 22.601562 27.820312 91.167969 22.859375 177.609375 L 54.902344 177.609375 L 54.902344 126.460938 L 114.230469 126.460938 C 126.097656 126.460938 138.585938 132.707031 150.039062 144.152344 C 158.71875 153.683594 164.195312 165.4375 165.90625 177.609375 L 172.613281 177.609375 C 171.585938 169.742188 169.105469 161.929688 165.234375 154.355469 C 154.414062 133.957031 135.261719 120.839844 115.902344 120.839844 L 54.914062 120.632812 L 54.914062 113.136719 L 115.902344 113.136719 C 131.515625 113.136719 147.542969 120.839844 160.035156 133.949219 C 171.46875 146.09375 178.292969 161.304688 180.007812 177.601562 L 194.175781 177.601562 L 194.175781 126.453125 L 253.507812 126.453125 C 265.375 126.453125 277.863281 132.699219 289.3125 144.144531 C 297.996094 153.675781 303.472656 165.433594 305.183594 177.601562 L 311.882812 177.601562 C 310.863281 169.738281 308.375 161.921875 304.511719 154.347656 C 293.683594 133.949219 274.539062 120.832031 255.179688 120.832031 L 194.191406 120.628906 L 194.191406 113.128906 L 255.160156 113.128906 Z M 292.007812 160.601562 C 283.476562 144.160156 268.691406 134.167969 253.496094 134.167969 L 201.660156 133.957031 L 201.660156 177.609375 L 208.191406 177.609375 L 208.117188 141.242188 L 252.875 141.03125 C 259.535156 141.03125 265.992188 143.113281 272.03125 147.066406 C 282.105469 153.898438 289.097656 165.496094 291.28125 177.609375 L 297.613281 177.609375 C 296.699219 171.835938 294.835938 166.121094 292.007812 160.601562 Z M 283.707031 177.609375 C 282.988281 174.179688 281.804688 170.894531 280.140625 167.675781 C 274.308594 156.644531 262.234375 148.320312 252.871094 148.320312 L 215.8125 148.527344 L 215.8125 177.617188 L 222.835938 177.617188 L 222.886719 154.570312 L 230.175781 154.570312 L 230.113281 177.617188 L 283.707031 177.617188 Z M 290.855469 194.964844 C 289.925781 198.796875 288.4375 202.628906 286.378906 206.398438 C 278.882812 220.347656 264.316406 230.128906 252.863281 230.128906 L 238.085938 230.128906 L 238.085938 222.628906 L 252.863281 222.628906 C 259.734375 222.628906 267.640625 218.257812 274.097656 210.972656 C 278.25 206.285156 281.363281 200.660156 283.054688 194.964844 L 230.070312 194.964844 L 229.964844 236.789062 L 253.699219 236.789062 C 262.855469 236.789062 273.886719 230.964844 283.046875 221.800781 C 290.480469 214.054688 295.390625 204.613281 297.316406 194.964844 Z M 290.855469 194.964844 " fill-opacity="1" fill-rule="nonzero"/></g><g fill="#ffffff" fill-opacity="1"><g transform="translate(208.13605, 187.2053)"><g><path d="M 0.8125 0 L 0.699219 0 L 0.613281 -0.246094 L 0.230469 -0.246094 L 0.148438 0 L 0.0351562 0 L 0.351562 -0.902344 L 0.496094 -0.902344 Z M 0.414062 -0.792969 L 0.261719 -0.335938 L 0.585938 -0.335938 L 0.429688 -0.792969 Z M 0.414062 -0.792969 "/></g></g></g><g fill="#ffffff" fill-opacity="1"><g transform="translate(208.983344, 187.2053)"><g><path d="M 0.351562 0.0117188 C 0.296875 0.0117188 0.25 0 0.207031 -0.0273438 C 0.167969 -0.0507812 0.132812 -0.0898438 0.109375 -0.144531 C 0.0859375 -0.195312 0.0742188 -0.261719 0.0742188 -0.339844 C 0.0742188 -0.417969 0.0859375 -0.484375 0.113281 -0.535156 C 0.136719 -0.589844 0.171875 -0.628906 0.214844 -0.652344 C 0.257812 -0.679688 0.308594 -0.691406 0.363281 -0.691406 C 0.410156 -0.691406 0.449219 -0.683594 0.488281 -0.667969 C 0.523438 -0.652344 0.554688 -0.621094 0.578125 -0.582031 L 0.59375 -0.585938 L 0.59375 -0.953125 L 0.691406 -0.953125 L 0.691406 0 L 0.59375 0 L 0.59375 -0.0976562 L 0.578125 -0.101562 C 0.558594 -0.0664062 0.527344 -0.0390625 0.488281 -0.0195312 C 0.453125 0.00390625 0.40625 0.0117188 0.351562 0.0117188 Z M 0.382812 -0.078125 C 0.449219 -0.078125 0.5 -0.0976562 0.535156 -0.140625 C 0.574219 -0.183594 0.59375 -0.25 0.59375 -0.339844 C 0.59375 -0.429688 0.574219 -0.496094 0.535156 -0.539062 C 0.5 -0.582031 0.449219 -0.601562 0.382812 -0.601562 C 0.320312 -0.601562 0.269531 -0.582031 0.234375 -0.539062 C 0.199219 -0.496094 0.179688 -0.429688 0.179688 -0.339844 C 0.179688 -0.164062 0.25 -0.078125 0.382812 -0.078125 Z M 0.382812 -0.078125 "/></g></g></g><g fill="#ffffff" fill-opacity="1"><g transform="translate(209.795488, 187.2053)"><g><path d="M 0.351562 0.0117188 C 0.296875 0.0117188 0.25 0 0.207031 -0.0273438 C 0.167969 -0.0507812 0.132812 -0.0898438 0.109375 -0.144531 C 0.0859375 -0.195312 0.0742188 -0.261719 0.0742188 -0.339844 C 0.0742188 -0.417969 0.0859375 -0.484375 0.113281 -0.535156 C 0.136719 -0.589844 0.171875 -0.628906 0.214844 -0.652344 C 0.257812 -0.679688 0.308594 -0.691406 0.363281 -0.691406 C 0.410156 -0.691406 0.449219 -0.683594 0.488281 -0.667969 C 0.523438 -0.652344 0.554688 -0.621094 0.578125 -0.582031 L 0.59375 -0.585938 L 0.59375 -0.953125 L 0.691406 -0.953125 L 0.691406 0 L 0.59375 0 L 0.59375 -0.0976562 L 0.578125 -0.101562 C 0.558594 -0.0664062 0.527344 -0.0390625 0.488281 -0.0195312 C 0.453125 0.00390625 0.40625 0.0117188 0.351562 0.0117188 Z M 0.382812 -0.078125 C 0.449219 -0.078125 0.5 -0.0976562 0.535156 -0.140625 C 0.574219 -0.183594 0.59375 -0.25 0.59375 -0.339844 C 0.59375 -0.429688 0.574219 -0.496094 0.535156 -0.539062 C 0.5 -0.582031 0.449219 -0.601562 0.382812 -0.601562 C 0.320312 -0.601562 0.269531 -0.582031 0.234375 -0.539062 C 0.199219 -0.496094 0.179688 -0.429688 0.179688 -0.339844 C 0.179688 -0.164062 0.25 -0.078125 0.382812 -0.078125 Z M 0.382812 -0.078125 "/></g></g></g><g fill="#ffffff" fill-opacity="1"><g transform="translate(210.607632, 187.2053)"><g/></g></g><g fill="#ffffff" fill-opacity="1"><g transform="translate(210.917197, 187.2053)"><g><path d="M 0.28125 0.0117188 C 0.214844 0.0117188 0.160156 -0.00390625 0.125 -0.0390625 C 0.0859375 -0.0742188 0.0664062 -0.125 0.0664062 -0.1875 C 0.0664062 -0.230469 0.0742188 -0.261719 0.09375 -0.292969 C 0.109375 -0.320312 0.132812 -0.339844 0.167969 -0.359375 C 0.203125 -0.375 0.25 -0.390625 0.304688 -0.398438 C 0.355469 -0.40625 0.394531 -0.417969 0.417969 -0.425781 C 0.445312 -0.4375 0.460938 -0.449219 0.472656 -0.460938 C 0.480469 -0.476562 0.484375 -0.492188 0.484375 -0.511719 C 0.484375 -0.539062 0.472656 -0.5625 0.453125 -0.582031 C 0.429688 -0.597656 0.398438 -0.605469 0.351562 -0.605469 C 0.304688 -0.605469 0.269531 -0.597656 0.238281 -0.578125 C 0.207031 -0.5625 0.175781 -0.539062 0.152344 -0.503906 L 0.136719 -0.503906 L 0.0898438 -0.574219 C 0.117188 -0.609375 0.152344 -0.640625 0.199219 -0.660156 C 0.242188 -0.683594 0.292969 -0.691406 0.351562 -0.691406 C 0.429688 -0.691406 0.488281 -0.675781 0.527344 -0.640625 C 0.566406 -0.605469 0.585938 -0.554688 0.585938 -0.496094 L 0.585938 -0.132812 C 0.585938 -0.0976562 0.601562 -0.078125 0.632812 -0.078125 C 0.644531 -0.078125 0.652344 -0.078125 0.664062 -0.0820312 L 0.671875 -0.0820312 L 0.683594 -0.0117188 C 0.675781 -0.00390625 0.667969 0 0.65625 0 C 0.640625 0.00390625 0.628906 0.00390625 0.617188 0.00390625 C 0.578125 0.00390625 0.550781 -0.00390625 0.53125 -0.0195312 C 0.511719 -0.0351562 0.5 -0.0585938 0.496094 -0.09375 L 0.484375 -0.09375 C 0.464844 -0.0585938 0.4375 -0.03125 0.40625 -0.0117188 C 0.371094 0.00390625 0.332031 0.0117188 0.28125 0.0117188 Z M 0.304688 -0.0664062 C 0.339844 -0.0664062 0.375 -0.0742188 0.402344 -0.09375 C 0.429688 -0.109375 0.449219 -0.136719 0.464844 -0.167969 C 0.480469 -0.199219 0.488281 -0.234375 0.488281 -0.277344 L 0.488281 -0.363281 L 0.476562 -0.367188 C 0.460938 -0.355469 0.441406 -0.347656 0.421875 -0.339844 C 0.398438 -0.332031 0.367188 -0.324219 0.328125 -0.320312 C 0.289062 -0.3125 0.257812 -0.304688 0.234375 -0.292969 C 0.210938 -0.285156 0.195312 -0.269531 0.183594 -0.253906 C 0.175781 -0.234375 0.171875 -0.214844 0.171875 -0.1875 C 0.171875 -0.148438 0.183594 -0.117188 0.207031 -0.0976562 C 0.230469 -0.078125 0.261719 -0.0664062 0.304688 -0.0664062 Z M 0.304688 -0.0664062 "/></g></g></g><g fill="#ffffff" fill-opacity="1"><g transform="translate(211.620809, 187.2053)"><g/></g></g><g fill="#ffffff" fill-opacity="1"><g transform="translate(211.930373, 187.2053)"><g><path d="M 0.269531 0.0117188 C 0.222656 0.0117188 0.183594 0 0.15625 -0.0273438 C 0.128906 -0.0546875 0.117188 -0.0976562 0.117188 -0.152344 L 0.117188 -0.953125 L 0.214844 -0.953125 L 0.214844 -0.15625 C 0.214844 -0.128906 0.222656 -0.109375 0.234375 -0.0976562 C 0.242188 -0.0820312 0.261719 -0.078125 0.285156 -0.078125 C 0.296875 -0.078125 0.3125 -0.078125 0.328125 -0.0820312 L 0.335938 -0.0820312 L 0.347656 -0.00390625 C 0.339844 0.00390625 0.328125 0.0078125 0.316406 0.0078125 C 0.300781 0.0117188 0.285156 0.0117188 0.269531 0.0117188 Z M 0.269531 0.0117188 "/></g></g></g><g fill="#ffffff" fill-opacity="1"><g transform="translate(212.30037, 187.2053)"><g><path d="M 0.167969 -0.8125 C 0.148438 -0.8125 0.128906 -0.816406 0.117188 -0.832031 C 0.101562 -0.84375 0.0976562 -0.863281 0.0976562 -0.882812 C 0.0976562 -0.902344 0.101562 -0.921875 0.117188 -0.933594 C 0.128906 -0.945312 0.148438 -0.953125 0.167969 -0.953125 C 0.191406 -0.953125 0.207031 -0.945312 0.222656 -0.933594 C 0.234375 -0.921875 0.242188 -0.902344 0.242188 -0.882812 C 0.242188 -0.863281 0.234375 -0.84375 0.222656 -0.832031 C 0.207031 -0.816406 0.191406 -0.8125 0.167969 -0.8125 Z M 0.117188 0 L 0.117188 -0.679688 L 0.21875 -0.679688 L 0.21875 0 Z M 0.117188 0 "/></g></g></g><g fill="#ffffff" fill-opacity="1"><g transform="translate(212.637685, 187.2053)"><g><path d="M 0.460938 -0.109375 L 0.492188 -0.0351562 C 0.476562 -0.0195312 0.453125 -0.0078125 0.429688 0 C 0.402344 0.0078125 0.375 0.0117188 0.34375 0.0117188 C 0.214844 0.0117188 0.148438 -0.0546875 0.148438 -0.183594 L 0.148438 -0.597656 L 0.03125 -0.597656 L 0.03125 -0.679688 L 0.148438 -0.679688 L 0.148438 -0.824219 L 0.25 -0.839844 L 0.25 -0.679688 L 0.46875 -0.679688 L 0.46875 -0.597656 L 0.25 -0.597656 L 0.25 -0.195312 C 0.25 -0.117188 0.285156 -0.078125 0.351562 -0.078125 C 0.386719 -0.078125 0.421875 -0.0859375 0.445312 -0.109375 Z M 0.460938 -0.109375 "/></g></g></g><g fill="#ffffff" fill-opacity="1"><g transform="translate(213.155681, 187.2053)"><g><path d="M 0.460938 -0.109375 L 0.492188 -0.0351562 C 0.476562 -0.0195312 0.453125 -0.0078125 0.429688 0 C 0.402344 0.0078125 0.375 0.0117188 0.34375 0.0117188 C 0.214844 0.0117188 0.148438 -0.0546875 0.148438 -0.183594 L 0.148438 -0.597656 L 0.03125 -0.597656 L 0.03125 -0.679688 L 0.148438 -0.679688 L 0.148438 -0.824219 L 0.25 -0.839844 L 0.25 -0.679688 L 0.46875 -0.679688 L 0.46875 -0.597656 L 0.25 -0.597656 L 0.25 -0.195312 C 0.25 -0.117188 0.285156 -0.078125 0.351562 -0.078125 C 0.386719 -0.078125 0.421875 -0.0859375 0.445312 -0.109375 Z M 0.460938 -0.109375 "/></g></g></g><g fill="#ffffff" fill-opacity="1"><g transform="translate(213.673677, 187.2053)"><g><path d="M 0.269531 0.0117188 C 0.222656 0.0117188 0.183594 0 0.15625 -0.0273438 C 0.128906 -0.0546875 0.117188 -0.0976562 0.117188 -0.152344 L 0.117188 -0.953125 L 0.214844 -0.953125 L 0.214844 -0.15625 C 0.214844 -0.128906 0.222656 -0.109375 0.234375 -0.0976562 C 0.242188 -0.0820312 0.261719 -0.078125 0.285156 -0.078125 C 0.296875 -0.078125 0.3125 -0.078125 0.328125 -0.0820312 L 0.335938 -0.0820312 L 0.347656 -0.00390625 C 0.339844 0.00390625 0.328125 0.0078125 0.316406 0.0078125 C 0.300781 0.0117188 0.285156 0.0117188 0.269531 0.0117188 Z M 0.269531 0.0117188 "/></g></g></g><g fill="#ffffff" fill-opacity="1"><g transform="translate(214.043675, 187.2053)"><g><path d="M 0.648438 -0.316406 L 0.179688 -0.316406 C 0.183594 -0.234375 0.203125 -0.171875 0.238281 -0.136719 C 0.277344 -0.0976562 0.328125 -0.078125 0.390625 -0.078125 C 0.441406 -0.078125 0.480469 -0.0859375 0.507812 -0.101562 C 0.539062 -0.121094 0.5625 -0.148438 0.578125 -0.183594 L 0.589844 -0.183594 L 0.65625 -0.144531 C 0.636719 -0.0976562 0.605469 -0.0585938 0.5625 -0.0273438 C 0.519531 0 0.460938 0.0117188 0.390625 0.0117188 C 0.324219 0.0117188 0.269531 0 0.222656 -0.0273438 C 0.175781 -0.0507812 0.136719 -0.0898438 0.113281 -0.144531 C 0.0859375 -0.195312 0.0742188 -0.261719 0.0742188 -0.339844 C 0.0742188 -0.417969 0.0898438 -0.480469 0.113281 -0.535156 C 0.140625 -0.589844 0.179688 -0.628906 0.226562 -0.652344 C 0.273438 -0.679688 0.324219 -0.691406 0.386719 -0.691406 C 0.472656 -0.691406 0.539062 -0.667969 0.589844 -0.621094 C 0.636719 -0.570312 0.664062 -0.496094 0.664062 -0.402344 C 0.664062 -0.363281 0.664062 -0.335938 0.660156 -0.324219 Z M 0.5625 -0.402344 C 0.5625 -0.472656 0.546875 -0.527344 0.515625 -0.558594 C 0.484375 -0.589844 0.441406 -0.609375 0.386719 -0.609375 C 0.324219 -0.609375 0.277344 -0.589844 0.246094 -0.558594 C 0.210938 -0.523438 0.191406 -0.472656 0.183594 -0.402344 Z M 0.5625 -0.402344 "/></g></g></g><g fill="#ffffff" fill-opacity="1"><g transform="translate(214.768869, 187.2053)"><g/></g></g><g fill="#ffffff" fill-opacity="1"><g transform="translate(215.078434, 187.2053)"><g><path d="M 0.453125 0.0117188 C 0.402344 0.0117188 0.359375 0.00390625 0.320312 -0.015625 C 0.28125 -0.0351562 0.253906 -0.0625 0.230469 -0.09375 L 0.21875 -0.0898438 L 0.21875 0 L 0.117188 0 L 0.117188 -0.953125 L 0.21875 -0.953125 L 0.21875 -0.578125 L 0.230469 -0.574219 C 0.285156 -0.652344 0.359375 -0.691406 0.457031 -0.691406 C 0.511719 -0.691406 0.5625 -0.679688 0.605469 -0.652344 C 0.644531 -0.628906 0.679688 -0.589844 0.703125 -0.535156 C 0.726562 -0.484375 0.738281 -0.417969 0.738281 -0.339844 C 0.738281 -0.261719 0.726562 -0.199219 0.699219 -0.144531 C 0.675781 -0.0898438 0.640625 -0.0507812 0.597656 -0.0273438 C 0.554688 0 0.507812 0.0117188 0.453125 0.0117188 Z M 0.429688 -0.078125 C 0.5625 -0.078125 0.632812 -0.164062 0.632812 -0.339844 C 0.632812 -0.429688 0.613281 -0.496094 0.578125 -0.539062 C 0.542969 -0.582031 0.492188 -0.601562 0.429688 -0.601562 C 0.363281 -0.601562 0.3125 -0.582031 0.277344 -0.539062 C 0.238281 -0.496094 0.21875 -0.429688 0.21875 -0.339844 C 0.21875 -0.25 0.238281 -0.183594 0.277344 -0.140625 C 0.3125 -0.0976562 0.363281 -0.078125 0.429688 -0.078125 Z M 0.429688 -0.078125 "/></g></g></g><g fill="#ffffff" fill-opacity="1"><g transform="translate(215.889961, 187.2053)"><g><path d="M 0.167969 -0.8125 C 0.148438 -0.8125 0.128906 -0.816406 0.117188 -0.832031 C 0.101562 -0.84375 0.0976562 -0.863281 0.0976562 -0.882812 C 0.0976562 -0.902344 0.101562 -0.921875 0.117188 -0.933594 C 0.128906 -0.945312 0.148438 -0.953125 0.167969 -0.953125 C 0.191406 -0.953125 0.207031 -0.945312 0.222656 -0.933594 C 0.234375 -0.921875 0.242188 -0.902344 0.242188 -0.882812 C 0.242188 -0.863281 0.234375 -0.84375 0.222656 -0.832031 C 0.207031 -0.816406 0.191406 -0.8125 0.167969 -0.8125 Z M 0.117188 0 L 0.117188 -0.679688 L 0.21875 -0.679688 L 0.21875 0 Z M 0.117188 0 "/></g></g></g><g fill="#ffffff" fill-opacity="1"><g transform="translate(216.227276, 187.2053)"><g><path d="M 0.460938 -0.109375 L 0.492188 -0.0351562 C 0.476562 -0.0195312 0.453125 -0.0078125 0.429688 0 C 0.402344 0.0078125 0.375 0.0117188 0.34375 0.0117188 C 0.214844 0.0117188 0.148438 -0.0546875 0.148438 -0.183594 L 0.148438 -0.597656 L 0.03125 -0.597656 L 0.03125 -0.679688 L 0.148438 -0.679688 L 0.148438 -0.824219 L 0.25 -0.839844 L 0.25 -0.679688 L 0.46875 -0.679688 L 0.46875 -0.597656 L 0.25 -0.597656 L 0.25 -0.195312 C 0.25 -0.117188 0.285156 -0.078125 0.351562 -0.078125 C 0.386719 -0.078125 0.421875 -0.0859375 0.445312 -0.109375 Z M 0.460938 -0.109375 "/></g></g></g><g fill="#ffffff" fill-opacity="1"><g transform="translate(216.745272, 187.2053)"><g/></g></g><g fill="#ffffff" fill-opacity="1"><g transform="translate(217.054836, 187.2053)"><g><path d="M 0.390625 0.0117188 C 0.328125 0.0117188 0.269531 0 0.222656 -0.0273438 C 0.175781 -0.0546875 0.140625 -0.09375 0.113281 -0.148438 C 0.0859375 -0.199219 0.0742188 -0.265625 0.0742188 -0.339844 C 0.0742188 -0.414062 0.0859375 -0.480469 0.113281 -0.53125 C 0.140625 -0.585938 0.175781 -0.625 0.222656 -0.652344 C 0.269531 -0.679688 0.328125 -0.691406 0.390625 -0.691406 C 0.453125 -0.691406 0.511719 -0.679688 0.558594 -0.652344 C 0.605469 -0.625 0.640625 -0.585938 0.667969 -0.53125 C 0.691406 -0.480469 0.707031 -0.414062 0.707031 -0.339844 C 0.707031 -0.265625 0.691406 -0.199219 0.667969 -0.148438 C 0.640625 -0.09375 0.605469 -0.0546875 0.558594 -0.0273438 C 0.511719 0 0.453125 0.0117188 0.390625 0.0117188 Z M 0.390625 -0.078125 C 0.457031 -0.078125 0.511719 -0.0976562 0.546875 -0.140625 C 0.582031 -0.183594 0.601562 -0.25 0.601562 -0.339844 C 0.601562 -0.429688 0.582031 -0.496094 0.546875 -0.539062 C 0.511719 -0.582031 0.457031 -0.601562 0.390625 -0.601562 C 0.324219 -0.601562 0.269531 -0.582031 0.234375 -0.539062 C 0.199219 -0.496094 0.179688 -0.429688 0.179688 -0.339844 C 0.179688 -0.25 0.199219 -0.183594 0.234375 -0.140625 C 0.269531 -0.0976562 0.324219 -0.078125 0.390625 -0.078125 Z M 0.390625 -0.078125 "/></g></g></g><g fill="#ffffff" fill-opacity="1"><g transform="translate(217.835531, 187.2053)"><g><path d="M 0.152344 0 L 0.152344 -0.597656 L 0.0351562 -0.597656 L 0.0351562 -0.679688 L 0.152344 -0.679688 C 0.144531 -0.710938 0.140625 -0.738281 0.140625 -0.765625 C 0.140625 -0.808594 0.148438 -0.847656 0.167969 -0.875 C 0.1875 -0.90625 0.214844 -0.929688 0.246094 -0.945312 C 0.28125 -0.957031 0.320312 -0.964844 0.363281 -0.964844 C 0.429688 -0.964844 0.480469 -0.953125 0.519531 -0.921875 L 0.480469 -0.851562 L 0.464844 -0.847656 C 0.441406 -0.871094 0.40625 -0.882812 0.363281 -0.882812 C 0.320312 -0.882812 0.292969 -0.871094 0.273438 -0.851562 C 0.25 -0.828125 0.242188 -0.800781 0.242188 -0.761719 C 0.242188 -0.738281 0.246094 -0.710938 0.253906 -0.679688 L 0.46875 -0.679688 L 0.46875 -0.597656 L 0.253906 -0.597656 L 0.253906 0 Z M 0.152344 0 "/></g></g></g><g fill="#ffffff" fill-opacity="1"><g transform="translate(218.320227, 187.2053)"><g/></g></g><g fill="#ffffff" fill-opacity="1"><g transform="translate(218.629792, 187.2053)"><g><path d="M 0.453125 0.0117188 C 0.402344 0.0117188 0.359375 0.00390625 0.320312 -0.015625 C 0.28125 -0.0351562 0.253906 -0.0625 0.230469 -0.09375 L 0.21875 -0.0898438 L 0.21875 0 L 0.117188 0 L 0.117188 -0.953125 L 0.21875 -0.953125 L 0.21875 -0.578125 L 0.230469 -0.574219 C 0.285156 -0.652344 0.359375 -0.691406 0.457031 -0.691406 C 0.511719 -0.691406 0.5625 -0.679688 0.605469 -0.652344 C 0.644531 -0.628906 0.679688 -0.589844 0.703125 -0.535156 C 0.726562 -0.484375 0.738281 -0.417969 0.738281 -0.339844 C 0.738281 -0.261719 0.726562 -0.199219 0.699219 -0.144531 C 0.675781 -0.0898438 0.640625 -0.0507812 0.597656 -0.0273438 C 0.554688 0 0.507812 0.0117188 0.453125 0.0117188 Z M 0.429688 -0.078125 C 0.5625 -0.078125 0.632812 -0.164062 0.632812 -0.339844 C 0.632812 -0.429688 0.613281 -0.496094 0.578125 -0.539062 C 0.542969 -0.582031 0.492188 -0.601562 0.429688 -0.601562 C 0.363281 -0.601562 0.3125 -0.582031 0.277344 -0.539062 C 0.238281 -0.496094 0.21875 -0.429688 0.21875 -0.339844 C 0.21875 -0.25 0.238281 -0.183594 0.277344 -0.140625 C 0.3125 -0.0976562 0.363281 -0.078125 0.429688 -0.078125 Z M 0.429688 -0.078125 "/></g></g></g><g fill="#ffffff" fill-opacity="1"><g transform="translate(219.441319, 187.2053)"><g><path d="M 0.390625 0.0117188 C 0.328125 0.0117188 0.269531 0 0.222656 -0.0273438 C 0.175781 -0.0546875 0.140625 -0.09375 0.113281 -0.148438 C 0.0859375 -0.199219 0.0742188 -0.265625 0.0742188 -0.339844 C 0.0742188 -0.414062 0.0859375 -0.480469 0.113281 -0.53125 C 0.140625 -0.585938 0.175781 -0.625 0.222656 -0.652344 C 0.269531 -0.679688 0.328125 -0.691406 0.390625 -0.691406 C 0.453125 -0.691406 0.511719 -0.679688 0.558594 -0.652344 C 0.605469 -0.625 0.640625 -0.585938 0.667969 -0.53125 C 0.691406 -0.480469 0.707031 -0.414062 0.707031 -0.339844 C 0.707031 -0.265625 0.691406 -0.199219 0.667969 -0.148438 C 0.640625 -0.09375 0.605469 -0.0546875 0.558594 -0.0273438 C 0.511719 0 0.453125 0.0117188 0.390625 0.0117188 Z M 0.390625 -0.078125 C 0.457031 -0.078125 0.511719 -0.0976562 0.546875 -0.140625 C 0.582031 -0.183594 0.601562 -0.25 0.601562 -0.339844 C 0.601562 -0.429688 0.582031 -0.496094 0.546875 -0.539062 C 0.511719 -0.582031 0.457031 -0.601562 0.390625 -0.601562 C 0.324219 -0.601562 0.269531 -0.582031 0.234375 -0.539062 C 0.199219 -0.496094 0.179688 -0.429688 0.179688 -0.339844 C 0.179688 -0.25 0.199219 -0.183594 0.234375 -0.140625 C 0.269531 -0.0976562 0.324219 -0.078125 0.390625 -0.078125 Z M 0.390625 -0.078125 "/></g></g></g><g fill="#ffffff" fill-opacity="1"><g transform="translate(220.222014, 187.2053)"><g><path d="M 0.351562 0.0117188 C 0.296875 0.0117188 0.25 0 0.207031 -0.0273438 C 0.167969 -0.0507812 0.132812 -0.0898438 0.109375 -0.144531 C 0.0859375 -0.195312 0.0742188 -0.261719 0.0742188 -0.339844 C 0.0742188 -0.417969 0.0859375 -0.484375 0.113281 -0.535156 C 0.136719 -0.589844 0.171875 -0.628906 0.214844 -0.652344 C 0.257812 -0.679688 0.308594 -0.691406 0.363281 -0.691406 C 0.410156 -0.691406 0.449219 -0.683594 0.488281 -0.667969 C 0.523438 -0.652344 0.554688 -0.621094 0.578125 -0.582031 L 0.59375 -0.585938 L 0.59375 -0.953125 L 0.691406 -0.953125 L 0.691406 0 L 0.59375 0 L 0.59375 -0.0976562 L 0.578125 -0.101562 C 0.558594 -0.0664062 0.527344 -0.0390625 0.488281 -0.0195312 C 0.453125 0.00390625 0.40625 0.0117188 0.351562 0.0117188 Z M 0.382812 -0.078125 C 0.449219 -0.078125 0.5 -0.0976562 0.535156 -0.140625 C 0.574219 -0.183594 0.59375 -0.25 0.59375 -0.339844 C 0.59375 -0.429688 0.574219 -0.496094 0.535156 -0.539062 C 0.5 -0.582031 0.449219 -0.601562 0.382812 -0.601562 C 0.320312 -0.601562 0.269531 -0.582031 0.234375 -0.539062 C 0.199219 -0.496094 0.179688 -0.429688 0.179688 -0.339844 C 0.179688 -0.164062 0.25 -0.078125 0.382812 -0.078125 Z M 0.382812 -0.078125 "/></g></g></g><g fill="#ffffff" fill-opacity="1"><g transform="translate(221.034158, 187.2053)"><g><path d="M 0.136719 0.289062 C 0.113281 0.289062 0.0898438 0.285156 0.0703125 0.28125 C 0.0507812 0.277344 0.0351562 0.273438 0.0195312 0.265625 L 0.0390625 0.1875 L 0.0507812 0.183594 C 0.0585938 0.1875 0.0703125 0.191406 0.0859375 0.195312 C 0.101562 0.199219 0.117188 0.199219 0.132812 0.199219 C 0.160156 0.199219 0.183594 0.199219 0.199219 0.191406 C 0.21875 0.183594 0.234375 0.171875 0.246094 0.152344 C 0.261719 0.136719 0.273438 0.113281 0.285156 0.0820312 L 0.308594 0.015625 L 0.0351562 -0.679688 L 0.144531 -0.679688 L 0.355469 -0.125 L 0.367188 -0.125 L 0.574219 -0.679688 L 0.679688 -0.679688 L 0.375 0.105469 C 0.359375 0.148438 0.339844 0.183594 0.316406 0.210938 C 0.296875 0.238281 0.269531 0.257812 0.242188 0.269531 C 0.210938 0.28125 0.175781 0.289062 0.136719 0.289062 Z M 0.136719 0.289062 "/></g></g></g><g fill="#ffffff" fill-opacity="1"><g transform="translate(221.751336, 187.2053)"><g/></g></g><g fill="#ffffff" fill-opacity="1"><g transform="translate(222.060901, 187.2053)"><g><path d="M 0.460938 -0.109375 L 0.492188 -0.0351562 C 0.476562 -0.0195312 0.453125 -0.0078125 0.429688 0 C 0.402344 0.0078125 0.375 0.0117188 0.34375 0.0117188 C 0.214844 0.0117188 0.148438 -0.0546875 0.148438 -0.183594 L 0.148438 -0.597656 L 0.03125 -0.597656 L 0.03125 -0.679688 L 0.148438 -0.679688 L 0.148438 -0.824219 L 0.25 -0.839844 L 0.25 -0.679688 L 0.46875 -0.679688 L 0.46875 -0.597656 L 0.25 -0.597656 L 0.25 -0.195312 C 0.25 -0.117188 0.285156 -0.078125 0.351562 -0.078125 C 0.386719 -0.078125 0.421875 -0.0859375 0.445312 -0.109375 Z M 0.460938 -0.109375 "/></g></g></g><g fill="#ffffff" fill-opacity="1"><g transform="translate(222.57088, 187.2053)"><g><path d="M 0.648438 -0.316406 L 0.179688 -0.316406 C 0.183594 -0.234375 0.203125 -0.171875 0.238281 -0.136719 C 0.277344 -0.0976562 0.328125 -0.078125 0.390625 -0.078125 C 0.441406 -0.078125 0.480469 -0.0859375 0.507812 -0.101562 C 0.539062 -0.121094 0.5625 -0.148438 0.578125 -0.183594 L 0.589844 -0.183594 L 0.65625 -0.144531 C 0.636719 -0.0976562 0.605469 -0.0585938 0.5625 -0.0273438 C 0.519531 0 0.460938 0.0117188 0.390625 0.0117188 C 0.324219 0.0117188 0.269531 0 0.222656 -0.0273438 C 0.175781 -0.0507812 0.136719 -0.0898438 0.113281 -0.144531 C 0.0859375 -0.195312 0.0742188 -0.261719 0.0742188 -0.339844 C 0.0742188 -0.417969 0.0898438 -0.480469 0.113281 -0.535156 C 0.140625 -0.589844 0.179688 -0.628906 0.226562 -0.652344 C 0.273438 -0.679688 0.324219 -0.691406 0.386719 -0.691406 C 0.472656 -0.691406 0.539062 -0.667969 0.589844 -0.621094 C 0.636719 -0.570312 0.664062 -0.496094 0.664062 -0.402344 C 0.664062 -0.363281 0.664062 -0.335938 0.660156 -0.324219 Z M 0.5625 -0.402344 C 0.5625 -0.472656 0.546875 -0.527344 0.515625 -0.558594 C 0.484375 -0.589844 0.441406 -0.609375 0.386719 -0.609375 C 0.324219 -0.609375 0.277344 -0.589844 0.246094 -0.558594 C 0.210938 -0.523438 0.191406 -0.472656 0.183594 -0.402344 Z M 0.5625 -0.402344 "/></g></g></g><g fill="#ffffff" fill-opacity="1"><g transform="translate(223.285592, 187.2053)"><g><path d="M 0.140625 0 L 0.03125 0 L 0.242188 -0.351562 L 0.0429688 -0.679688 L 0.15625 -0.679688 L 0.3125 -0.417969 L 0.328125 -0.417969 L 0.484375 -0.679688 L 0.59375 -0.679688 L 0.398438 -0.351562 L 0.601562 0 L 0.488281 0 L 0.320312 -0.289062 L 0.308594 -0.289062 Z M 0.140625 0 "/></g></g></g><g fill="#ffffff" fill-opacity="1"><g transform="translate(223.919521, 187.2053)"><g><path d="M 0.460938 -0.109375 L 0.492188 -0.0351562 C 0.476562 -0.0195312 0.453125 -0.0078125 0.429688 0 C 0.402344 0.0078125 0.375 0.0117188 0.34375 0.0117188 C 0.214844 0.0117188 0.148438 -0.0546875 0.148438 -0.183594 L 0.148438 -0.597656 L 0.03125 -0.597656 L 0.03125 -0.679688 L 0.148438 -0.679688 L 0.148438 -0.824219 L 0.25 -0.839844 L 0.25 -0.679688 L 0.46875 -0.679688 L 0.46875 -0.597656 L 0.25 -0.597656 L 0.25 -0.195312 C 0.25 -0.117188 0.285156 -0.078125 0.351562 -0.078125 C 0.386719 -0.078125 0.421875 -0.0859375 0.445312 -0.109375 Z M 0.460938 -0.109375 "/></g></g></g></svg>